<svg width="172" height="50" viewBox="0 0 172 50" fill="none" xmlns="http://www.w3.org/2000/svg">
<g id="Group 31">
<path id="Union" fill-rule="evenodd" clip-rule="evenodd" d="M97.6204 25.6662V6.71546C97.0779 6.66595 96.5287 6.64062 95.9737 6.64062C85.9721 6.64062 77.8638 14.8604 77.8638 24.9998C77.8638 35.1395 85.9721 43.3594 95.9737 43.3594C96.5287 43.3594 97.0779 43.3339 97.6204 43.2844V28.6292H104.311C104.779 29.3507 105.581 29.8227 106.491 29.8227C107.938 29.8231 109.111 28.6264 109.111 27.1475C109.111 25.669 107.938 24.4719 106.491 24.4719C105.581 24.4719 104.78 24.9467 104.311 25.6662H97.6204ZM105.041 37.9715C105.041 38.7893 105.69 39.4531 106.491 39.4531C113.135 39.4531 118.539 33.933 118.539 27.1483C118.539 20.3631 113.135 14.8438 106.491 14.8438C105.69 14.8438 105.041 15.5067 105.041 16.3253C105.041 17.1431 105.69 17.8068 106.491 17.8068C111.535 17.8068 115.638 21.9965 115.638 27.1483C115.638 32.2998 111.535 36.4902 106.491 36.4902C105.69 36.4902 105.041 37.1537 105.041 37.9715ZM106.491 19.6764C110.525 19.6764 113.807 23.0277 113.807 27.1475C113.807 31.2677 110.524 34.619 106.491 34.6182C105.69 34.6182 105.041 33.9543 105.041 33.1365C105.041 32.3187 105.69 31.6553 106.491 31.6553C108.925 31.6553 110.905 29.6344 110.905 27.1475C110.905 24.6618 108.925 22.6394 106.491 22.6394C105.69 22.6394 105.041 21.9757 105.041 21.1579C105.041 20.3402 105.69 19.6764 106.491 19.6764Z" fill="white"/>
<g id="Group 9">
<g id="Group">
<path id="Vector" d="M19.8522 41.2777V10.5867C19.8522 9.62171 20.2552 8.85297 21.0612 8.28054C21.8834 7.70811 22.6088 7.42188 23.2375 7.42188C23.7856 7.42188 24.0596 7.77351 24.0596 8.47681V38.9225C24.0596 39.7405 23.8984 40.3375 23.576 40.7136C23.1569 41.2043 22.641 41.6376 22.0284 42.0141C21.432 42.3901 20.9564 42.5781 20.6018 42.5781C20.4567 42.5781 20.3358 42.5616 20.2391 42.5291C20.1585 42.4965 20.0698 42.3819 19.9731 42.1856C19.8925 41.9728 19.8522 41.6702 19.8522 41.2777ZM16.6604 37.4505L0.290166 10.9792C0.096722 10.6684 0 10.3822 0 10.1205C0 9.76071 0.185385 9.37638 0.556152 8.96747C1.52337 7.93707 2.4261 7.42188 3.26437 7.42188C3.66739 7.42188 4.0301 7.68358 4.35249 8.20694L17.4583 29.232C17.8936 29.9189 18.1596 30.5568 18.2563 31.1456C18.353 31.7179 18.4014 32.6502 18.4014 33.9424C18.4014 36.8208 18.1031 38.2603 17.5067 38.2603C17.2971 38.2603 17.0473 38.0314 16.7571 37.5733C16.7087 37.5243 16.6765 37.4834 16.6604 37.4505ZM3.86888 19.7621C4.12682 20.3673 4.25577 21.1115 4.25577 21.9947V38.9225C4.25577 39.7405 4.09455 40.3375 3.77216 40.7136C3.36914 41.2043 2.8533 41.6376 2.22461 42.0141C1.61205 42.3901 1.14453 42.5781 0.822137 42.5781C0.306288 42.5781 0.048361 42.2264 0.048361 41.5234V15.6405C0.048361 15.248 0.201503 15.0517 0.50779 15.0517C0.717368 15.0517 0.943039 15.1989 1.18484 15.4933C1.44278 15.7877 1.85385 16.3602 2.41805 17.2107C3.06288 18.192 3.54649 19.0425 3.86888 19.7621ZM34.699 7.91254H47.7325C48.4254 7.91254 48.7721 8.16604 48.7721 8.67307C48.7721 8.90204 48.6107 9.31911 48.2885 9.92427C47.9662 10.5131 47.5793 11.0119 47.1278 11.4208C46.7572 11.7643 46.1687 11.936 45.3624 11.936H31.483C31.2412 11.936 31.0639 11.9278 30.951 11.9115C30.8382 11.8788 30.7334 11.8052 30.6367 11.6907C30.5561 11.5762 30.5158 11.4126 30.5158 11.2C30.5158 10.5948 30.9833 9.89974 31.9183 9.11467C32.8693 8.31324 33.7963 7.91254 34.699 7.91254ZM30.54 41.2777V29.1829C30.54 28.5941 30.7334 28.2098 31.1203 28.0297C31.5233 27.8334 32.1439 27.7353 32.9822 27.7353C33.8849 27.7353 34.5136 27.8334 34.8683 28.0297C35.2229 28.2098 35.4002 28.5941 35.4002 29.1829V37.3037C35.4002 37.9741 35.7308 38.3093 36.3917 38.3093H48.2161C48.909 38.3093 49.2557 38.5629 49.2557 39.0701C49.2557 39.2989 49.0943 39.724 48.7721 40.3458C48.4498 40.9507 48.0706 41.4496 47.6358 41.8421C47.2648 42.1691 46.6686 42.3328 45.846 42.3328H31.3863C30.8221 42.3328 30.54 41.9811 30.54 41.2777ZM30.54 25.2576V14.88C30.54 14.2912 30.7334 13.8987 31.1203 13.7024C31.5233 13.5061 32.1439 13.408 32.9822 13.408C33.8849 13.408 34.5136 13.5061 34.8683 13.7024C35.2229 13.8823 35.4002 14.2748 35.4002 14.88V21.2341C35.4002 21.9047 35.7308 22.24 36.3917 22.24H46.2329C46.9262 22.24 47.2729 22.4935 47.2729 23.0005C47.2729 23.2294 47.1115 23.6466 46.7893 24.2519C46.467 24.8407 46.0882 25.3392 45.6526 25.7483C45.2819 26.0917 44.6854 26.2633 43.8636 26.2633H31.5314C30.8704 26.2633 30.54 25.928 30.54 25.2576ZM66.4966 23.9328C66.4966 24.2928 66.6738 24.7834 67.0282 25.4048L74.7179 38.6528C75.0081 39.1599 75.1528 39.6015 75.1528 39.9776C75.1528 40.6645 74.7582 41.2698 73.9681 41.7931C73.1944 42.3163 72.5011 42.5781 71.8886 42.5781C71.2437 42.5781 70.6877 42.1773 70.22 41.3758L61.6361 26.7053C61.3138 26.1651 61.1525 25.6745 61.1525 25.2333C61.1525 24.8733 61.2813 24.456 61.5394 23.9819C66.6173 14.8555 69.406 10.006 69.9058 9.43361C70.3411 8.94294 70.9937 8.48497 71.8642 8.05974C72.751 7.63451 73.4443 7.42188 73.9442 7.42188C74.4599 7.42188 74.7179 7.67537 74.7179 8.18241C74.7179 8.49318 74.5566 8.94294 74.2343 9.53174L67.1492 22.1909C66.714 22.976 66.4966 23.5568 66.4966 23.9328ZM61.4426 32.4704C58.8149 37.328 57.2515 40.0102 56.7516 40.5173C56.3164 41.008 55.6714 41.4739 54.8172 41.9159C53.9788 42.3571 53.318 42.5781 52.8344 42.5781C52.3024 42.5781 52.0204 42.3493 51.9883 41.8912C51.9883 41.5477 52.1492 41.0735 52.4719 40.4683L58.8795 28.8642C59.2501 28.2098 59.6533 27.8829 60.0885 27.8829C60.5075 27.8829 60.9188 28.2098 61.3215 28.8642C61.7247 29.5182 61.9263 30.1643 61.9263 30.8021C61.9263 31.3584 61.7649 31.9142 61.4426 32.4704ZM58.4199 20.7435L52.786 11.1755C52.5442 10.8156 52.4231 10.4804 52.4231 10.1696C52.4231 9.46631 52.8746 8.83664 53.7772 8.28054C54.6802 7.70811 55.4378 7.42188 56.0506 7.42188C56.5822 7.42188 57.0418 7.75718 57.4287 8.42774L62.1921 16.9163C62.4822 17.4396 62.6277 17.8976 62.6277 18.2901C62.6277 18.8462 62.3375 19.6068 61.7572 20.5717C61.1122 21.6348 60.5157 22.1664 59.9674 22.1664C59.6452 22.1664 59.3794 22.0519 59.1697 21.8229C58.96 21.594 58.7101 21.2341 58.4199 20.7435Z" fill="#00D1C1"/>
</g>
<g id="Group_2">
<path id="Vector_2" d="M2.32431 50C3.608 50 4.64863 48.9507 4.64863 47.6562C4.64863 46.3618 3.608 45.3125 2.32431 45.3125C1.04063 45.3125 0 46.3618 0 47.6562C0 48.9507 1.04063 50 2.32431 50Z" fill="white"/>
</g>
</g>
<g id="Group 10">
<g id="Group_3">
<path id="Vector_3" d="M128.171 7.91254H141.281C141.978 7.91254 142.327 8.16604 142.327 8.67307C142.327 8.90204 142.164 9.31911 141.84 9.92427C141.516 10.5131 141.127 11.0119 140.673 11.4208C140.3 11.7643 139.708 11.936 138.897 11.936H124.936C124.693 11.936 124.515 11.9278 124.402 11.9115C124.288 11.8788 124.182 11.8052 124.085 11.6907C124.004 11.5762 123.963 11.4126 123.963 11.2C123.963 10.5948 124.434 9.89974 125.374 9.11467C126.331 8.31324 127.263 7.91254 128.171 7.91254ZM123.988 41.2777V29.1829C123.988 28.5941 124.182 28.2098 124.572 28.0297C124.977 27.8334 125.601 27.7353 126.445 27.7353C127.352 27.7353 127.985 27.8334 128.341 28.0297C128.698 28.2098 128.877 28.5941 128.877 29.1829V37.3037C128.877 37.9741 129.209 38.3093 129.874 38.3093H141.767C142.464 38.3093 142.813 38.5629 142.813 39.0701C142.813 39.2989 142.651 39.724 142.327 40.3458C142.002 40.9507 141.621 41.4496 141.183 41.8421C140.81 42.1691 140.21 42.3328 139.384 42.3328H124.839C124.272 42.3328 123.988 41.9811 123.988 41.2777ZM123.988 25.2576V14.88C123.988 14.2912 124.182 13.8987 124.572 13.7024C124.977 13.5061 125.601 13.408 126.445 13.408C127.352 13.408 127.985 13.5061 128.341 13.7024C128.698 13.8823 128.877 14.2748 128.877 14.88V21.2341C128.877 21.9047 129.209 22.24 129.874 22.24H139.773C140.47 22.24 140.819 22.4935 140.819 23.0005C140.819 23.2294 140.656 23.6466 140.332 24.2519C140.008 24.8407 139.627 25.3392 139.189 25.7483C138.816 26.0917 138.216 26.2633 137.389 26.2633H124.985C124.32 26.2633 123.988 25.928 123.988 25.2576ZM167.767 41.2777V10.5867C167.767 9.62171 168.173 8.85297 168.983 8.28054C169.81 7.70811 170.54 7.42188 171.172 7.42188C171.724 7.42188 171.999 7.77351 171.999 8.47681V38.9225C171.999 39.7405 171.837 40.3375 171.513 40.7136C171.091 41.2043 170.572 41.6376 169.956 42.0141C169.356 42.3901 168.878 42.5781 168.521 42.5781C168.375 42.5781 168.254 42.5616 168.156 42.5291C168.075 42.4965 167.986 42.3819 167.889 42.1856C167.808 41.9728 167.767 41.6702 167.767 41.2777ZM164.557 37.4505L148.091 10.9792C147.896 10.6684 147.799 10.3822 147.799 10.1205C147.799 9.76071 147.986 9.37638 148.358 8.96747C149.331 7.93707 150.239 7.42188 151.082 7.42188C151.488 7.42188 151.853 7.68358 152.177 8.20694L165.36 29.232C165.797 29.9189 166.065 30.5568 166.162 31.1456C166.259 31.7179 166.308 32.6502 166.308 33.9424C166.308 36.8208 166.008 38.2603 165.408 38.2603C165.197 38.2603 164.946 38.0314 164.654 37.5733C164.605 37.5243 164.573 37.4834 164.557 37.4505ZM151.69 19.7621C151.95 20.3673 152.079 21.1115 152.079 21.9947V38.9225C152.079 39.7405 151.918 40.3375 151.593 40.7136C151.188 41.2043 150.669 41.6376 150.036 42.0141C149.42 42.3901 148.95 42.5781 148.626 42.5781C148.107 42.5781 147.848 42.2264 147.848 41.5234V15.6405C147.848 15.248 148.002 15.0517 148.31 15.0517C148.521 15.0517 148.748 15.1989 148.991 15.4933C149.25 15.7877 149.664 16.3602 150.231 17.2107C150.88 18.192 151.366 19.0425 151.69 19.7621Z" fill="#00D1C1"/>
</g>
<g id="Group_4">
<path id="Vector_4" d="M169.676 4.6875C170.959 4.6875 172 3.63817 172 2.34375C172 1.04933 170.959 0 169.676 0C168.392 0 167.351 1.04933 167.351 2.34375C167.351 3.63817 168.392 4.6875 169.676 4.6875Z" fill="white"/>
</g>
</g>
</g>
</svg>
